<svg xmlns="http://www.w3.org/2000/svg" viewBox="0 0 380 120">
  <!-- Background with subtle gradient -->
  <defs>
    <linearGradient id="cardGradient" x1="0%" y1="0%" x2="100%" y2="100%">
      <stop offset="0%" style="stop-color:#ffffff;stop-opacity:1" />
      <stop offset="100%" style="stop-color:#f8f9fa;stop-opacity:1" />
    </linearGradient>
    <!-- Shadow filter -->
    <filter id="shadow" x="-20%" y="-20%" width="140%" height="140%">
      <feDropShadow dx="0" dy="4" stdDeviation="8" flood-color="#0000001a"/>
    </filter>
  </defs>

  <!-- Main card background -->
  <rect x="20" y="10" width="340" height="100" rx="12" 
        fill="url(#cardGradient)" 
        filter="url(#shadow)"/>

  <!-- Icon background circle -->
  <circle cx="80" cy="60" r="28" fill="#fff5f6"/>
  
  <!-- Phone icon - modernized -->
  <path d="M88 72c-1.2 0-2.8-.4-5.2-1.8-3-1.7-5.3-3.2-8.2-6.1-2.9-2.9-4.3-4.8-6.2-8.2-2.2-4-1.8-6.2-1.4-7.1.5-1.1 1.2-1.7 2.2-2.3.6-.4 1.1-.7 1.7-.9.4-.2.8-.3 1.2-.1.4.1.7.4 1.2.9 1.1 1.1 2.6 3.5 3.1 4.6.3.8.5 1.3.5 1.9 0 .7-.3 1.2-.7 1.8-.1.1-.2.2-.3.3-.5.6-.6.8-.5 1.1.1.6 1.1 2.5 2.7 4.1s3.4 2.6 4 2.7c.3.1.5 0 1.1-.5.1-.1.2-.2.3-.3.6-.5 1.1-.8 1.8-.8s1.1.3 1.9.6c1.1.5 3.5 2 4.6 3.1.5.5.8.8.9 1.2.2.4.1.8-.1 1.2-.2.6-.5 1.1-.9 1.7-.6 1-1.2 1.7-2.3 2.2-.5.3-1.1.4-1.7.4z" 
        fill="#EE4A62"/>

  <!-- Text Group -->
  <g transform="translate(130, 45)">
    <!-- "ONLINE SUPPORT" text with better typography -->
    <text font-family="Arial, sans-serif" font-size="14" font-weight="600" fill="#52525B" letter-spacing="0.5">
      ONLINE SUPPORT
    </text>
    
    <!-- Phone number with modern styling -->
    <text y="35" font-family="Consolas, monospace" font-size="20" fill="#EE4A62" font-weight="600">
      93 (402) 10770
    </text>
  </g>

  <!-- Subtle decorative elements -->
  <circle cx="340" cy="20" r="3" fill="#EE4A62" fill-opacity="0.1"/>
  <circle cx="30" cy="100" r="4" fill="#EE4A62" fill-opacity="0.1"/>
</svg>